<svg width="70" height="20" viewBox="0 0 70 20" fill="none" xmlns="http://www.w3.org/2000/svg">
<path d="M3.74594 17.078C3.06127 17.078 2.44594 16.9263 1.89994 16.623C1.35394 16.3197 0.924938 15.9037 0.612938 15.375C0.309604 14.8377 0.157938 14.231 0.157938 13.555C0.157938 12.879 0.309604 12.2767 0.612938 11.748C0.924938 11.2107 1.35394 10.7947 1.89994 10.5C2.44594 10.1967 3.06127 10.045 3.74594 10.045C4.4306 10.045 5.0416 10.1967 5.57894 10.5C6.12494 10.7947 6.5496 11.2107 6.85294 11.748C7.16494 12.2767 7.32094 12.879 7.32094 13.555C7.32094 14.231 7.16494 14.8377 6.85294 15.375C6.5496 15.9037 6.12494 16.3197 5.57894 16.623C5.0416 16.9263 4.4306 17.078 3.74594 17.078ZM3.74594 15.986C4.18794 15.986 4.58227 15.8863 4.92894 15.687C5.28427 15.479 5.5616 15.193 5.76094 14.829C5.96027 14.4563 6.05994 14.0317 6.05994 13.555C6.05994 13.0783 5.96027 12.658 5.76094 12.294C5.5616 11.9213 5.28427 11.6353 4.92894 11.436C4.58227 11.2367 4.18794 11.137 3.74594 11.137C3.30394 11.137 2.90527 11.2367 2.54994 11.436C2.20327 11.6353 1.92594 11.9213 1.71794 12.294C1.5186 12.658 1.41894 13.0783 1.41894 13.555C1.41894 14.0317 1.5186 14.4563 1.71794 14.829C1.92594 15.193 2.20327 15.479 2.54994 15.687C2.90527 15.8863 3.30394 15.986 3.74594 15.986ZM14.0042 11.202H11.4822V17H10.2342V11.202H7.71216V10.11H14.0042V11.202ZM31.1625 14.06H28.8825V17H25.7225V14.06H18.1825V11.88L24.7825 3H28.1825L22.0625 11.42H25.8225V8.8H28.8825V11.42H31.1625V14.06ZM38.8716 8.22C39.7649 8.22 40.5782 8.4 41.3116 8.76C42.0449 9.12 42.6249 9.63333 43.0516 10.3C43.4782 10.9533 43.6916 11.7133 43.6916 12.58C43.6916 13.5133 43.4582 14.3333 42.9916 15.04C42.5249 15.7467 41.8849 16.2933 41.0716 16.68C40.2716 17.0533 39.3782 17.24 38.3916 17.24C36.4316 17.24 34.8982 16.64 33.7916 15.44C32.6849 14.24 32.1316 12.5267 32.1316 10.3C32.1316 8.71333 32.4316 7.35333 33.0316 6.22C33.6316 5.08667 34.4649 4.22667 35.5316 3.64C36.6116 3.05333 37.8582 2.76 39.2716 2.76C40.0182 2.76 40.7316 2.84667 41.4116 3.02C42.1049 3.18 42.6916 3.41333 43.1716 3.72L41.9716 6.1C41.2782 5.63333 40.4049 5.4 39.3516 5.4C38.1649 5.4 37.2249 5.74667 36.5316 6.44C35.8382 7.13333 35.4649 8.14 35.4116 9.46C36.2382 8.63333 37.3916 8.22 38.8716 8.22ZM38.2116 14.82C38.9049 14.82 39.4649 14.6333 39.8916 14.26C40.3316 13.8867 40.5516 13.38 40.5516 12.74C40.5516 12.1 40.3316 11.5933 39.8916 11.22C39.4649 10.8333 38.8916 10.64 38.1716 10.64C37.4649 10.64 36.8849 10.84 36.4316 11.24C35.9782 11.6267 35.7516 12.1267 35.7516 12.74C35.7516 13.3533 35.9716 13.8533 36.4116 14.24C36.8516 14.6267 37.4516 14.82 38.2116 14.82ZM50.8659 17.24C49.7059 17.24 48.6726 16.9533 47.7659 16.38C46.8593 15.8067 46.1459 14.98 45.6259 13.9C45.1193 12.8067 44.8659 11.5067 44.8659 10C44.8659 8.49333 45.1193 7.2 45.6259 6.12C46.1459 5.02667 46.8593 4.19333 47.7659 3.62C48.6726 3.04667 49.7059 2.76 50.8659 2.76C52.0259 2.76 53.0593 3.04667 53.9659 3.62C54.8726 4.19333 55.5793 5.02667 56.0859 6.12C56.6059 7.2 56.8659 8.49333 56.8659 10C56.8659 11.5067 56.6059 12.8067 56.0859 13.9C55.5793 14.98 54.8726 15.8067 53.9659 16.38C53.0593 16.9533 52.0259 17.24 50.8659 17.24ZM50.8659 14.5C51.7193 14.5 52.3859 14.1333 52.8659 13.4C53.3593 12.6667 53.6059 11.5333 53.6059 10C53.6059 8.46667 53.3593 7.33333 52.8659 6.6C52.3859 5.86667 51.7193 5.5 50.8659 5.5C50.0259 5.5 49.3593 5.86667 48.8659 6.6C48.3859 7.33333 48.1459 8.46667 48.1459 10C48.1459 11.5333 48.3859 12.6667 48.8659 13.4C49.3593 14.1333 50.0259 14.5 50.8659 14.5ZM69.8602 12.9C69.8602 13.9933 69.4602 14.9333 68.6602 15.72C67.8602 16.4933 66.7068 16.9733 65.2002 17.16V19.4H63.2002V17.22C62.2135 17.1667 61.2735 16.9933 60.3802 16.7C59.4868 16.4067 58.7668 16.0467 58.2202 15.62L59.3202 13.18C59.8268 13.5533 60.4202 13.8667 61.1002 14.12C61.7802 14.3733 62.4802 14.5333 63.2002 14.6V11.26C62.2535 11.0333 61.4535 10.78 60.8002 10.5C60.1468 10.22 59.6002 9.81333 59.1602 9.28C58.7202 8.73333 58.5002 8.01333 58.5002 7.12C58.5002 6.01333 58.9002 5.06667 59.7002 4.28C60.5135 3.48 61.6802 2.99333 63.2002 2.82V0.599999H65.2002V2.78C66.8402 2.91333 68.1935 3.32 69.2602 4L68.2602 6.46C67.2602 5.88667 66.2402 5.54 65.2002 5.42V8.82C66.1335 9.03333 66.9202 9.28 67.5602 9.56C68.2135 9.82667 68.7602 10.2333 69.2002 10.78C69.6402 11.3133 69.8602 12.02 69.8602 12.9ZM61.7202 6.96C61.7202 7.29333 61.8468 7.56667 62.1002 7.78C62.3535 7.99333 62.7202 8.17333 63.2002 8.32V5.48C62.6935 5.6 62.3202 5.79333 62.0802 6.06C61.8402 6.31333 61.7202 6.61333 61.7202 6.96ZM65.2002 14.52C65.6802 14.4133 66.0402 14.24 66.2802 14C66.5202 13.76 66.6402 13.4733 66.6402 13.14C66.6402 12.8067 66.5135 12.5333 66.2602 12.32C66.0202 12.1067 65.6668 11.92 65.2002 11.76V14.52Z" fill="#1B1E22"/>
</svg>
